<svg width="56" height="56" viewBox="0 0 56 56" fill="none" xmlns="http://www.w3.org/2000/svg">
<path d="M56 28C56 35.4261 53.0498 42.548 47.7984 47.799C42.547 53.05 35.4245 56 27.9979 56L56 28ZM27.9979 0C39.3737 0 49.1526 6.78125 53.5498 16.5156L16.5126 53.55C14.9157 52.8281 13.4062 51.975 11.9842 50.9906L34.9984 28H27.9979L8.19953 47.7969C4.28421 43.881 1.61795 38.8923 0.537834 33.4614C-0.542284 28.0305 0.0122444 22.4012 2.13131 17.2854C4.25037 12.1696 7.83882 7.79693 12.443 4.7202C17.0471 1.64346 22.4602 0.000836364 27.9979 0Z" fill="white"/>
</svg>
